<mxfile host="Electron" agent="Mozilla/5.0 (Macintosh; Intel Mac OS X 10_15_7) AppleWebKit/537.36 (KHTML, like Gecko) draw.io/26.1.1 Chrome/132.0.6834.210 Electron/34.3.3 Safari/537.36" version="26.1.1">
  <diagram name="Page-1" id="1c9zpXSmrbr6ivRWd4uX">
    <mxGraphModel dx="1114" dy="878" grid="1" gridSize="10" guides="1" tooltips="1" connect="1" arrows="1" fold="1" page="1" pageScale="1" pageWidth="827" pageHeight="1169" math="0" shadow="0">
      <root>
        <mxCell id="0" />
        <mxCell id="1" parent="0" />
        <mxCell id="5y4lISTbPHzwUo4sEYZm-1" value="" style="rounded=1;whiteSpace=wrap;html=1;fillColor=#f5f5f5;fontColor=#333333;strokeColor=#666666;" vertex="1" parent="1">
          <mxGeometry x="170" y="340" width="200" height="70" as="geometry" />
        </mxCell>
        <mxCell id="5y4lISTbPHzwUo4sEYZm-2" value="요청이&lt;div&gt;제출됐다&lt;/div&gt;" style="whiteSpace=wrap;html=1;aspect=fixed;fillColor=#ffe6cc;strokeColor=#d79b00;" vertex="1" parent="1">
          <mxGeometry x="150" y="140" width="60" height="60" as="geometry" />
        </mxCell>
        <mxCell id="5y4lISTbPHzwUo4sEYZm-3" value="요금이&lt;div&gt;예약됐다&lt;/div&gt;" style="whiteSpace=wrap;html=1;aspect=fixed;fillColor=#ffe6cc;strokeColor=#d79b00;" vertex="1" parent="1">
          <mxGeometry x="230" y="140" width="60" height="60" as="geometry" />
        </mxCell>
        <mxCell id="5y4lISTbPHzwUo4sEYZm-4" value="요청이&lt;div&gt;승인됐다&lt;/div&gt;" style="whiteSpace=wrap;html=1;aspect=fixed;fillColor=#ffe6cc;strokeColor=#d79b00;" vertex="1" parent="1">
          <mxGeometry x="150" y="220" width="60" height="60" as="geometry" />
        </mxCell>
        <mxCell id="5y4lISTbPHzwUo4sEYZm-5" value="이벤트" style="whiteSpace=wrap;html=1;aspect=fixed;fillColor=#ffe6cc;strokeColor=#d79b00;" vertex="1" parent="1">
          <mxGeometry x="190" y="355" width="40" height="40" as="geometry" />
        </mxCell>
        <mxCell id="5y4lISTbPHzwUo4sEYZm-6" value="주문이&lt;div&gt;생성됐다&lt;/div&gt;" style="whiteSpace=wrap;html=1;aspect=fixed;fillColor=#ffe6cc;strokeColor=#d79b00;" vertex="1" parent="1">
          <mxGeometry x="310" y="140" width="60" height="60" as="geometry" />
        </mxCell>
        <mxCell id="5y4lISTbPHzwUo4sEYZm-7" value="알림을&lt;div&gt;보냈다&lt;/div&gt;" style="whiteSpace=wrap;html=1;aspect=fixed;fillColor=#ffe6cc;strokeColor=#d79b00;" vertex="1" parent="1">
          <mxGeometry x="230" y="220" width="60" height="60" as="geometry" />
        </mxCell>
        <mxCell id="5y4lISTbPHzwUo4sEYZm-15" value="" style="whiteSpace=wrap;html=1;aspect=fixed;fillColor=#d80073;strokeColor=#A50040;rotation=45;fontColor=#ffffff;" vertex="1" parent="1">
          <mxGeometry x="229" y="60" width="60" height="60" as="geometry" />
        </mxCell>
        <mxCell id="5y4lISTbPHzwUo4sEYZm-16" value="항공원 요금은 어떻게 비교하는가?" style="text;html=1;align=center;verticalAlign=middle;whiteSpace=wrap;rounded=0;fontColor=light-dark(#f8f7f7, #ededed);fontSize=10;" vertex="1" parent="1">
          <mxGeometry x="225" y="83" width="70" height="30" as="geometry" />
        </mxCell>
        <mxCell id="5y4lISTbPHzwUo4sEYZm-17" value="" style="whiteSpace=wrap;html=1;aspect=fixed;fillColor=#d80073;strokeColor=#A50040;rotation=45;fontColor=#ffffff;" vertex="1" parent="1">
          <mxGeometry x="260" y="355" width="40" height="40" as="geometry" />
        </mxCell>
        <mxCell id="5y4lISTbPHzwUo4sEYZm-18" value="고충점" style="text;html=1;align=center;verticalAlign=middle;whiteSpace=wrap;rounded=0;fontColor=#FFFFFF;" vertex="1" parent="1">
          <mxGeometry x="250" y="360" width="60" height="30" as="geometry" />
        </mxCell>
      </root>
    </mxGraphModel>
  </diagram>
</mxfile>
